<svg xmlns="http://www.w3.org/2000/svg" viewBox="0 0 800 240" shape-rendering="geometricPrecision" text-rendering="geometricPrecision"><defs><linearGradient id="a" x1="0%" y1="0%" x2="100%" y2="100%"><stop offset="0%" stop-color="#0b0f19"/><stop offset="50%" stop-color="#111827"/><stop offset="100%" stop-color="#070a10"/></linearGradient><linearGradient id="c" x1="0%" y1="0%" x2="100%" y2="100%"><stop offset="0%" stop-color="#1e293b"/><stop offset="50%" stop-color="#334155"/><stop offset="100%" stop-color="#0f172a"/></linearGradient><linearGradient id="e" x1="0%" y1="0%" x2="100%" y2="100%"><stop offset="0%" stop-color="#0f172a"/><stop offset="100%" stop-color="#1e293b"/></linearGradient><linearGradient id="f" x1="0%" y1="0%" x2="100%" y2="100%"><stop offset="0%" stop-color="#00f2fe"/><stop offset="50%" stop-color="#3b82f6"/><stop offset="100%" stop-color="#10b981"/></linearGradient><linearGradient id="i" x1="0%" y1="0%" x2="100%" y2="0%"><stop offset="0%" stop-color="#38bdf8"/><stop offset="40%" stop-color="#818cf8"/><stop offset="70%" stop-color="#34d399"/><stop offset="100%" stop-color="#00f5a0"/></linearGradient><linearGradient id="j" x1="0%" y1="0%" x2="100%" y2="0%"><stop offset="0%" stop-color="#38bdf8"/><stop offset="50%" stop-color="#818cf8"/><stop offset="100%" stop-color="#34d399"/></linearGradient><linearGradient id="g" x1="0%" y1="0%" x2="100%" y2="100%"><stop offset="0%" stop-color="#38bdf8" stop-opacity=".9"/><stop offset="100%" stop-color="#1e40af" stop-opacity=".6"/></linearGradient><filter id="h" x="-20%" y="-20%" width="140%" height="140%"><feGaussianBlur stdDeviation="6" result="blur"/><feComposite in="SourceGraphic" in2="blur"/></filter><filter id="d" x="-30%" y="-30%" width="160%" height="160%"><feGaussianBlur stdDeviation="12" result="blur"/></filter><pattern id="b" width="20" height="20" patternUnits="userSpaceOnUse"><path d="M20 0H0v20" fill="none" stroke="#1e293b" stroke-width=".5" stroke-opacity=".5"/></pattern></defs><rect width="800" height="240" rx="24" fill="url(#a)"/><rect width="800" height="240" rx="24" fill="url(#b)" opacity=".6"/><rect x="1" y="1" width="798" height="238" rx="23" fill="none" stroke="url(#c)" stroke-width="1.5"/><circle cx="130" cy="120" r="80" fill="#38bdf8" opacity=".08" filter="url(#d)"/><circle cx="160" cy="90" r="50" fill="#10b981" opacity=".06" filter="url(#d)"/><g transform="translate(30 30)"><rect width="180" height="180" rx="36" fill="url(#e)"/><rect x="1" y="1" width="178" height="178" rx="35" fill="none" stroke="url(#f)" stroke-width="1.5" opacity=".8"/><circle cx="90" cy="90" r="62" fill="none" stroke="#334155" stroke-dasharray="4 4" opacity=".4"/><circle cx="90" cy="90" r="42" fill="none" stroke="#1e293b" opacity=".6"/><path d="M64 52c0-10 10-14 26-14s26 4 26 14v16c0 10-14 17-26 17s-26-7-26-17Z" fill="none" stroke="url(#g)" stroke-width="3.5" stroke-linejoin="round" opacity=".5"/><circle cx="64" cy="50" r="4" fill="#38bdf8"/><circle cx="116" cy="50" r="4" fill="#38bdf8"/><path d="M90 85v17c0 18-38 13-38 33 0 17 16 23 33 23" fill="none" stroke="#38bdf8" stroke-width="4" stroke-linecap="round"/><circle cx="85" cy="158" r="9" fill="#0f172a" stroke="#38bdf8" stroke-width="3"/><circle cx="85" cy="158" r="3.5" fill="#34d399"/><g filter="url(#h)" fill="none" stroke-width="5" stroke-linecap="round" stroke-linejoin="round"><path d="M38 98h24l6 12 10-50 12 76 8-51 8 19 8-6h28" stroke="url(#i)"/><path d="m134 88 14 10-14 10" stroke="#00f5a0"/></g><circle cx="78" cy="60" r="3" fill="#38bdf8"/><circle cx="90" cy="136" r="3" fill="#f43f5e"/><circle cx="148" cy="98" r="3" fill="#00f5a0"/><g transform="translate(132 40)"><circle cx="12" cy="12" r="15" fill="#0f172a" stroke="#34d399" stroke-width="1.5"/><path d="M12 6v12m-6-6h12" stroke="#00f5a0" stroke-width="3" stroke-linecap="round"/></g></g><text y="112" font-family="system-ui, -apple-system, BlinkMacSystemFont, 'Segoe UI', Roboto, sans-serif" transform="translate(240)">
      <tspan font-size="54" font-weight="800" fill="#f8fafc" letter-spacing="-1.5">fetch</tspan>
      <tspan font-size="54" font-weight="300"> </tspan>
      <tspan font-size="54" font-weight="300" fill="url(#j)" letter-spacing="-1">doctor</tspan>
    </text><g transform="translate(625 74)"><rect width="110" height="26" rx="13" fill="#064e3b" fill-opacity=".6" stroke="#10b981"/><circle cx="14" cy="13" r="4" fill="#00f5a0" filter="url(#h)"/><text x="25" y="17" font-family="system-ui, -apple-system, sans-serif" font-size="11" font-weight="700" fill="#34d399" letter-spacing=".5">SCORE 100</text></g><text x="2" y="142" font-family="system-ui, -apple-system, sans-serif" font-size="13" font-weight="600" fill="#94a3b8" letter-spacing="1.5" transform="translate(240)">
      RUNTIME HTTP PROFILER &amp; ZOMBIE FETCH DETECTOR
    </text><g transform="translate(242 162)"><rect width="112" height="24" rx="6" fill="#0f172a" stroke="#0ea5e9" stroke-opacity=".6"/><circle cx="12" cy="12" r="3" fill="#38bdf8"/><text x="22" y="16" font-family="ui-monospace, SFMono-Regular, Consolas, monospace" font-size="11" font-weight="600" fill="#7dd3fc">@core</text></g><g transform="translate(364 162)"><rect width="118" height="24" rx="6" fill="#0f172a" stroke="#6366f1" stroke-opacity=".6"/><circle cx="12" cy="12" r="3" fill="#818cf8"/><text x="22" y="16" font-family="ui-monospace, SFMono-Regular, Consolas, monospace" font-size="11" font-weight="600" fill="#a5b4fc">@react 19</text></g><g transform="translate(492 162)"><rect width="124" height="24" rx="6" fill="#0f172a" stroke="#10b981" stroke-opacity=".6"/><circle cx="12" cy="12" r="3" fill="#34d399"/><text x="22" y="16" font-family="ui-monospace, SFMono-Regular, Consolas, monospace" font-size="11" font-weight="600" fill="#6ee7b7">@shared</text></g></svg>